<?xml version="1.0" encoding="UTF-8" standalone="no"?>
<!DOCTYPE svg PUBLIC "-//W3C//DTD SVG 1.1//EN" "http://www.w3.org/Graphics/SVG/1.1/DTD/svg11.dtd">
<svg width="100%" height="100%" viewBox="0 0 4096 1536" version="1.1" xmlns="http://www.w3.org/2000/svg" xmlns:xlink="http://www.w3.org/1999/xlink" xml:space="preserve" xmlns:serif="http://www.serif.com/" style="fill-rule:evenodd;clip-rule:evenodd;stroke-linejoin:round;stroke-miterlimit:2;">
    <g transform="matrix(1.64103,0,0,1.64103,-1000.44,-912.42)">
        <g transform="matrix(1,0,0,1,-154.608,93.0851)">
            <text x="1822.34px" y="1150.04px" style="font-family:'HiraMaruProN-W4', 'Hiragino Maru Gothic ProN', sans-serif;font-size:622.411px;fill:white;">Favs</text>
        </g>
        <g transform="matrix(0.570176,0,0,0.570176,491.78,367.762)">
            <g>
                <g transform="matrix(1,0,0,1.40314,-1.31367,-763.341)">
                    <path d="M1004.35,1430.58C1005.37,1782.29 1023.4,1851.48 814.791,1894.15C814.248,1894.27 821.146,1931.16 821.654,1931.04C1033.05,1880.46 1056.55,1849.5 1046.62,1430.32C1046.6,1429.15 1004.34,1429.24 1004.35,1430.58Z" style="fill:white;"/>
                    <path d="M995.798,1430.59C996.207,1570.98 999.363,1666.25 989.642,1732.77C982.56,1781.23 968.825,1814.06 941.332,1837.8C913.907,1861.47 872.938,1875.92 812.432,1888.3C811.958,1888.39 805.695,1890.16 806.292,1895.51C806.856,1900.56 811.551,1925.72 812.908,1931.11C813.459,1933.3 814.552,1934.45 814.764,1934.65C817.956,1937.73 821.819,1937.42 824.375,1936.81C889.234,1921.29 936.674,1907.4 971.208,1884.24C1003.82,1862.36 1025.23,1832.24 1038.39,1784.42C1057.52,1714.87 1059.36,1606.91 1055.17,1430.21C1055.14,1428.7 1054.47,1425.77 1049.21,1424.42C1047.14,1423.89 1036.29,1423.37 1025.42,1423.42C1014.4,1423.46 1003.42,1424.14 1001.32,1424.77C996.46,1426.24 995.793,1428.97 995.798,1430.59ZM1038.2,1436.04C1042.19,1608.13 1040.4,1713.76 1021.61,1782.08C1009.34,1826.68 989.908,1854.95 959.488,1875.36C928.199,1896.35 885.608,1909.06 828.444,1922.96C826.995,1915.81 824.967,1904.88 823.939,1898.59C884.864,1885.64 926.248,1869.96 954.518,1845.55C983.758,1820.31 999.118,1785.57 1006.65,1734.04C1016.28,1668.12 1013.39,1574.09 1012.92,1436.16L1038.2,1436.04Z" style="fill:white;"/>
                </g>
                <g transform="matrix(1,0,0,1,-16.1667,55.7815)">
                    <path d="M1128.79,961.839C1095.06,944.603 1070.63,939.191 1044.56,854.049C1012.64,749.822 1155.21,316.955 1452.36,300.198C1639.35,289.652 1856,586.875 1775.67,686.433C1635.1,860.657 1203.75,1000.14 1128.79,961.839Z" style="fill:white;"/>
                    <path d="M1124.9,969.453C1134.79,974.502 1150.26,977.047 1170.18,976.743C1197.88,976.32 1234.77,970.648 1277.01,960.482C1439.95,921.258 1682.97,814.94 1782.33,691.802C1796.4,674.354 1802.41,651.438 1801.3,625.173C1799.73,588.034 1783.79,543.884 1757.77,500.067C1719.29,435.252 1658.83,371.058 1591.96,331.444C1546.63,304.589 1498.34,289.041 1451.88,291.661C1300.32,300.208 1187.77,414.337 1117.59,540.157C1075.81,615.075 1049.04,693.988 1037.78,756.519C1030.05,799.419 1029.74,834.836 1036.39,856.552C1050.01,901.024 1063.45,924.547 1077.64,939.33C1091.94,954.232 1107.14,960.376 1124.9,969.453ZM1132.68,954.225C1116.72,946.066 1102.84,940.886 1089.97,927.488C1077,913.969 1065.19,892.216 1052.74,851.545C1046.62,831.571 1047.5,799.007 1054.6,759.55C1065.59,698.545 1091.76,621.577 1132.53,548.487C1199.94,427.628 1307.26,316.944 1452.84,308.734C1496.13,306.293 1541.01,321.137 1583.24,346.156C1647.72,384.353 1705.96,446.302 1743.07,508.797C1767.45,549.854 1782.74,591.097 1784.22,625.896C1785.13,647.591 1780.64,666.652 1769.02,681.064C1671.57,801.839 1432.82,905.386 1273,943.857C1232.24,953.669 1196.65,959.237 1169.92,959.645C1153.57,959.894 1140.79,958.368 1132.68,954.225Z" style="fill:white;"/>
                </g>
                <g transform="matrix(-1,0,0,1,2064.17,55.7815)">
                    <path d="M1128.79,961.839C1095.06,944.603 1070.63,939.191 1044.56,854.049C1012.64,749.822 1155.21,316.955 1452.36,300.198C1639.35,289.652 1856,586.875 1775.67,686.433C1635.1,860.657 1203.75,1000.14 1128.79,961.839Z" style="fill:white;"/>
                    <path d="M1124.9,969.453C1107.14,960.376 1091.94,954.232 1077.64,939.33C1063.45,924.547 1050.01,901.024 1036.39,856.552C1029.74,834.836 1030.05,799.419 1037.78,756.519C1049.04,693.988 1075.81,615.075 1117.59,540.157C1187.77,414.337 1300.32,300.208 1451.88,291.661C1498.34,289.041 1546.63,304.589 1591.96,331.444C1658.83,371.058 1719.29,435.252 1757.77,500.067C1783.79,543.884 1799.73,588.034 1801.3,625.173C1802.41,651.438 1796.4,674.354 1782.33,691.802C1682.97,814.94 1439.95,921.258 1277.01,960.482C1234.77,970.648 1197.88,976.32 1170.18,976.743C1150.26,977.047 1134.79,974.502 1124.9,969.453ZM1132.68,954.225C1140.79,958.368 1153.57,959.894 1169.92,959.645C1196.65,959.237 1232.24,953.669 1273,943.857C1432.82,905.386 1671.57,801.839 1769.02,681.064C1780.64,666.652 1785.13,647.591 1784.22,625.896C1782.74,591.097 1767.45,549.854 1743.07,508.797C1705.96,446.302 1647.72,384.353 1583.24,346.156C1541.01,321.137 1496.13,306.293 1452.84,308.734C1307.26,316.944 1199.94,427.628 1132.53,548.487C1091.76,621.577 1065.59,698.545 1054.6,759.55C1047.5,799.007 1046.62,831.571 1052.74,851.545C1065.19,892.216 1077,913.969 1089.97,927.488C1102.84,940.886 1116.72,946.066 1132.68,954.225Z" style="fill:white;"/>
                </g>
                <g transform="matrix(-1,0,0,-1,2064.17,1992.22)">
                    <path d="M1128.79,961.839C1095.06,944.603 1070.63,939.191 1044.56,854.049C1012.64,749.822 1155.21,316.955 1452.36,300.198C1639.35,289.652 1856,586.875 1775.67,686.433C1635.1,860.657 1203.75,1000.14 1128.79,961.839Z" style="fill:white;"/>
                    <path d="M1124.9,969.453C1134.79,974.502 1150.26,977.047 1170.18,976.743C1197.88,976.32 1234.77,970.648 1277.01,960.482C1439.95,921.258 1682.97,814.94 1782.33,691.802C1796.4,674.354 1802.41,651.438 1801.3,625.173C1799.73,588.034 1783.79,543.884 1757.77,500.067C1719.29,435.252 1658.83,371.058 1591.96,331.444C1546.63,304.589 1498.34,289.041 1451.88,291.661C1300.32,300.208 1187.77,414.337 1117.59,540.157C1075.81,615.075 1049.04,693.988 1037.78,756.519C1030.05,799.419 1029.74,834.836 1036.39,856.552C1050.01,901.024 1063.45,924.547 1077.64,939.33C1091.94,954.232 1107.14,960.376 1124.9,969.453ZM1132.68,954.225C1116.72,946.066 1102.84,940.886 1089.97,927.488C1077,913.969 1065.19,892.216 1052.74,851.545C1046.62,831.571 1047.5,799.007 1054.6,759.55C1065.59,698.545 1091.76,621.577 1132.53,548.487C1199.94,427.628 1307.26,316.944 1452.84,308.734C1496.13,306.293 1541.01,321.137 1583.24,346.156C1647.72,384.353 1705.96,446.302 1743.07,508.797C1767.45,549.854 1782.74,591.097 1784.22,625.896C1785.13,647.591 1780.64,666.652 1769.02,681.064C1671.57,801.839 1432.82,905.386 1273,943.857C1232.24,953.669 1196.65,959.237 1169.92,959.645C1153.57,959.894 1140.79,958.368 1132.68,954.225Z" style="fill:white;"/>
                </g>
                <g transform="matrix(1,0,0,-1,-16.1667,1992.22)">
                    <path d="M1128.79,961.839C1095.06,944.603 1070.63,939.191 1044.56,854.049C1012.64,749.822 1155.21,316.955 1452.36,300.198C1639.35,289.652 1856,586.875 1775.67,686.433C1635.1,860.657 1203.75,1000.14 1128.79,961.839Z" style="fill:white;"/>
                    <path d="M1124.9,969.453C1107.14,960.376 1091.94,954.232 1077.64,939.33C1063.45,924.547 1050.01,901.024 1036.39,856.552C1029.74,834.836 1030.05,799.419 1037.78,756.519C1049.04,693.988 1075.81,615.075 1117.59,540.157C1187.77,414.337 1300.32,300.208 1451.88,291.661C1498.34,289.041 1546.63,304.589 1591.96,331.444C1658.83,371.058 1719.29,435.252 1757.77,500.067C1783.79,543.884 1799.73,588.034 1801.3,625.173C1802.41,651.438 1796.4,674.354 1782.33,691.802C1682.97,814.94 1439.95,921.258 1277.01,960.482C1234.77,970.648 1197.88,976.32 1170.18,976.743C1150.26,977.047 1134.79,974.502 1124.9,969.453ZM1132.68,954.225C1140.79,958.368 1153.57,959.894 1169.92,959.645C1196.65,959.237 1232.24,953.669 1273,943.857C1432.82,905.386 1671.57,801.839 1769.02,681.064C1780.64,666.652 1785.13,647.591 1784.22,625.896C1782.74,591.097 1767.45,549.854 1743.07,508.797C1705.96,446.302 1647.72,384.353 1583.24,346.156C1541.01,321.137 1496.13,306.293 1452.84,308.734C1307.26,316.944 1199.94,427.628 1132.53,548.487C1091.76,621.577 1065.59,698.545 1054.6,759.55C1047.5,799.007 1046.62,831.571 1052.74,851.545C1065.19,892.216 1077,913.969 1089.97,927.488C1102.84,940.886 1116.72,946.066 1132.68,954.225Z" style="fill:white;"/>
                </g>
                <g transform="matrix(3.1311,0,0,3.1311,-2627.19,-1881.33)">
                    <path d="M1201.76,941.668C1201.47,938.809 1192.3,947.743 1190.97,948.186C1182.03,951.164 1170.28,965.068 1159.97,962.492C1144.28,958.568 1122.4,932.761 1126.59,915.999C1132.24,893.403 1174.57,889.918 1190.97,898.117C1206.68,905.971 1214.04,941.033 1195.74,941.033C1194.15,941.033 1193.35,941.709 1193.35,939.841" style="fill:white;"/>
                    <path d="M1200.86,944.245C1201.23,944.375 1201.63,944.428 1202.05,944.384C1203.55,944.229 1204.63,942.885 1204.48,941.386C1204.45,941.142 1204.41,940.918 1204.35,940.711L1204.46,940.611C1207.47,937.859 1209.06,933.441 1209.22,928.271C1209.57,916.478 1202.43,900.796 1192.19,895.674C1181.88,890.52 1161.79,889.656 1146.09,894.997C1135.15,898.717 1126.42,905.442 1123.94,915.337C1122.12,922.647 1124.66,931.578 1129.68,939.887C1136.97,951.961 1149.36,962.654 1159.31,965.141C1164.07,966.331 1169.15,964.667 1174.13,961.792C1180.43,958.153 1186.61,952.518 1191.83,950.777C1192.36,950.599 1193.98,949.449 1195.84,947.929C1197.28,946.743 1199.71,945.043 1200.86,944.245ZM1195.61,938.305L1195.74,938.303C1201.41,938.303 1203.59,933.71 1203.76,928.107C1204.06,918.196 1198.36,904.863 1189.75,900.559C1180.38,895.875 1162.12,895.313 1147.85,900.167C1138.81,903.243 1131.29,908.479 1129.24,916.661C1127.72,922.76 1130.16,930.132 1134.35,937.064C1140.86,947.85 1151.75,957.621 1160.63,959.843C1165.12,960.964 1169.83,958.213 1174.48,955.143C1179.95,951.531 1185.29,947.277 1189.89,945.67L1189.9,945.664C1190.5,945.263 1191.46,944.464 1192.58,943.552C1192.11,943.335 1191.72,943.01 1191.39,942.568C1191.02,942.081 1190.62,941.281 1190.62,939.841C1190.62,938.334 1191.85,937.111 1193.35,937.111C1194.29,937.111 1195.12,937.584 1195.61,938.305Z" style="fill:white;"/>
                </g>
            </g>
        </g>
    </g>
</svg>
