<?xml version="1.0" encoding="UTF-8" standalone="no"?>
<!DOCTYPE svg PUBLIC "-//W3C//DTD SVG 1.1//EN" "http://www.w3.org/Graphics/SVG/1.1/DTD/svg11.dtd">
<svg width="100%" height="100%" viewBox="0 0 400 400" version="1.1" xmlns="http://www.w3.org/2000/svg" xmlns:xlink="http://www.w3.org/1999/xlink" xml:space="preserve" xmlns:serif="http://www.serif.com/" style="fill-rule:evenodd;clip-rule:evenodd;stroke-linejoin:round;stroke-miterlimit:2;">
    <g transform="matrix(0.111362,0,0,0.111362,86.8604,71.8285)">
        <g>
            <g transform="matrix(1,0,0,1.40314,-1.31367,-763.341)">
                <path d="M1004.35,1430.58C1005.37,1782.29 1023.4,1851.48 814.791,1894.15C814.248,1894.27 821.146,1931.16 821.654,1931.04C1033.05,1880.46 1056.55,1849.5 1046.62,1430.32C1046.6,1429.15 1004.34,1429.24 1004.35,1430.58Z" style="fill:white;"/>
                <path d="M990.317,1430.6C990.725,1570.79 993.899,1665.94 984.19,1732.37C977.253,1779.84 964.038,1812.06 937.105,1835.31C910.283,1858.46 870.095,1872.44 810.92,1884.54C810.168,1884.7 799.882,1887.33 800.828,1895.82C801.398,1900.92 806.142,1926.35 807.514,1931.8C808.324,1935.02 810.046,1936.67 810.358,1936.98C815.593,1942.02 821.928,1941.52 826.12,1940.51C891.901,1924.78 939.939,1910.58 974.965,1887.08C1008.28,1864.73 1030.33,1834.02 1043.76,1785.18C1062.94,1715.46 1064.85,1607.25 1060.65,1430.15C1060.6,1427.7 1059.58,1422.93 1051.07,1420.75C1048.83,1420.17 1037.13,1419.46 1025.39,1419.51C1013.4,1419.56 1001.47,1420.49 999.188,1421.18C991.331,1423.55 990.31,1427.99 990.317,1430.6ZM1032.81,1439.91C1036.68,1609.35 1034.84,1713.68 1016.23,1781.33C1004.24,1824.9 985.448,1852.58 955.731,1872.52C926.099,1892.4 886.108,1904.64 833.024,1917.71L832.56,1915.23C832.2,1913.26 831.841,1911.29 831.481,1909.32L830.06,1901.35C889.791,1888.31 930.59,1872.35 958.745,1848.04C988.545,1822.32 1004.43,1786.97 1012.1,1734.44C1021.66,1669.05 1018.92,1576.01 1018.42,1439.96L1032.81,1439.91Z" style="fill:white;"/>
            </g>
            <g transform="matrix(1,0,0,1,-16.1667,55.7815)">
                <path d="M1128.79,961.839C1095.06,944.603 1070.63,939.191 1044.56,854.049C1012.64,749.822 1155.21,316.955 1452.36,300.198C1639.35,289.652 1856,586.875 1775.67,686.433C1635.1,860.657 1203.75,1000.14 1128.79,961.839Z" style="fill:white;"/>
                <path d="M1122.41,974.333C1132.86,979.673 1149.19,982.545 1170.27,982.223C1198.27,981.795 1235.58,976.091 1278.29,965.81C1442.24,926.346 1686.62,819.139 1786.59,695.243C1801.45,676.823 1807.95,652.671 1806.78,624.941C1805.17,587.052 1789.03,541.97 1762.49,497.268C1723.56,431.71 1662.39,366.797 1594.75,326.729C1548.43,299.285 1499.05,283.511 1451.57,286.189C1298.09,294.844 1183.88,410.076 1112.81,537.488C1070.69,612.992 1043.73,692.527 1032.38,755.547C1024.46,799.551 1024.32,835.882 1031.14,858.157C1045.14,903.848 1059.11,927.938 1073.68,943.125C1088.45,958.51 1104.07,964.963 1122.41,974.333ZM1135.18,949.345C1119.78,941.479 1106.33,936.609 1093.93,923.693C1081.34,910.579 1070.06,889.393 1057.98,849.94C1052.03,830.525 1053.09,798.875 1060,760.521C1070.9,700.005 1096.87,623.661 1137.32,551.157C1203.84,431.888 1309.48,322.308 1453.15,314.206C1495.42,311.822 1539.21,326.441 1580.45,350.871C1644.16,388.614 1701.69,449.843 1738.36,511.596C1762.21,551.768 1777.3,592.078 1778.74,626.128C1779.6,646.358 1775.6,664.184 1764.75,677.622C1667.91,797.64 1430.54,900.299 1271.72,938.528C1231.43,948.226 1196.26,953.761 1169.84,954.165C1154.63,954.397 1142.72,953.197 1135.18,949.345Z" style="fill:white;"/>
            </g>
            <g transform="matrix(-1,0,0,1,2064.17,55.7815)">
                <path d="M1128.79,961.839C1095.06,944.603 1070.63,939.191 1044.56,854.049C1012.64,749.822 1155.21,316.955 1452.36,300.198C1639.35,289.652 1856,586.875 1775.67,686.433C1635.1,860.657 1203.75,1000.14 1128.79,961.839Z" style="fill:white;"/>
                <path d="M1122.41,974.333C1104.07,964.963 1088.45,958.51 1073.68,943.125C1059.11,927.938 1045.14,903.848 1031.14,858.157C1024.32,835.882 1024.46,799.551 1032.38,755.547C1043.73,692.527 1070.69,612.992 1112.81,537.488C1183.88,410.076 1298.09,294.844 1451.57,286.189C1499.05,283.511 1548.43,299.285 1594.75,326.729C1662.39,366.797 1723.56,431.71 1762.49,497.268C1789.03,541.97 1805.17,587.052 1806.78,624.941C1807.95,652.671 1801.45,676.823 1786.59,695.243C1686.62,819.139 1442.24,926.346 1278.29,965.81C1235.58,976.091 1198.27,981.795 1170.27,982.223C1149.19,982.545 1132.86,979.673 1122.41,974.333ZM1135.18,949.345C1142.72,953.197 1154.63,954.397 1169.84,954.165C1196.26,953.761 1231.43,948.226 1271.72,938.528C1430.54,900.299 1667.91,797.64 1764.75,677.622C1775.6,664.184 1779.6,646.358 1778.74,626.128C1777.3,592.078 1762.21,551.768 1738.36,511.596C1701.69,449.843 1644.16,388.614 1580.45,350.871C1539.21,326.441 1495.42,311.822 1453.15,314.206C1309.48,322.308 1203.84,431.888 1137.32,551.157C1096.87,623.661 1070.9,700.005 1060,760.521C1053.09,798.875 1052.03,830.525 1057.98,849.94C1070.06,889.393 1081.34,910.579 1093.93,923.693C1106.33,936.609 1119.78,941.479 1135.18,949.345Z" style="fill:white;"/>
            </g>
            <g transform="matrix(-1,0,0,-1,2064.17,1992.22)">
                <path d="M1128.79,961.839C1095.06,944.603 1070.63,939.191 1044.56,854.049C1012.64,749.822 1155.21,316.955 1452.36,300.198C1639.35,289.652 1856,586.875 1775.67,686.433C1635.1,860.657 1203.75,1000.14 1128.79,961.839Z" style="fill:white;"/>
                <path d="M1122.41,974.333C1132.86,979.673 1149.19,982.545 1170.27,982.223C1198.27,981.795 1235.58,976.091 1278.29,965.81C1442.24,926.346 1686.62,819.139 1786.59,695.243C1801.45,676.823 1807.95,652.671 1806.78,624.941C1805.17,587.052 1789.03,541.97 1762.49,497.268C1723.56,431.71 1662.39,366.797 1594.75,326.729C1548.43,299.285 1499.05,283.511 1451.57,286.189C1298.09,294.844 1183.88,410.076 1112.81,537.488C1070.69,612.992 1043.73,692.527 1032.38,755.547C1024.46,799.551 1024.32,835.882 1031.14,858.157C1045.14,903.848 1059.11,927.938 1073.68,943.125C1088.45,958.51 1104.07,964.963 1122.41,974.333ZM1135.18,949.345C1119.78,941.479 1106.33,936.609 1093.93,923.693C1081.34,910.579 1070.06,889.393 1057.98,849.94C1052.03,830.525 1053.09,798.875 1060,760.521C1070.9,700.005 1096.87,623.661 1137.32,551.157C1203.84,431.888 1309.48,322.308 1453.15,314.206C1495.42,311.822 1539.21,326.441 1580.45,350.871C1644.16,388.614 1701.69,449.843 1738.36,511.596C1762.21,551.768 1777.3,592.078 1778.74,626.128C1779.6,646.358 1775.6,664.184 1764.75,677.622C1667.91,797.64 1430.54,900.299 1271.72,938.528C1231.43,948.226 1196.26,953.761 1169.84,954.165C1154.63,954.397 1142.72,953.197 1135.18,949.345Z" style="fill:white;"/>
            </g>
            <g transform="matrix(1,0,0,-1,-16.1667,1992.22)">
                <path d="M1128.79,961.839C1095.06,944.603 1070.63,939.191 1044.56,854.049C1012.64,749.822 1155.21,316.955 1452.36,300.198C1639.35,289.652 1856,586.875 1775.67,686.433C1635.1,860.657 1203.75,1000.14 1128.79,961.839Z" style="fill:white;"/>
                <path d="M1122.41,974.333C1104.07,964.963 1088.45,958.51 1073.68,943.125C1059.11,927.938 1045.14,903.848 1031.14,858.157C1024.32,835.882 1024.46,799.551 1032.38,755.547C1043.73,692.527 1070.69,612.992 1112.81,537.488C1183.88,410.076 1298.09,294.844 1451.57,286.189C1499.05,283.511 1548.43,299.285 1594.75,326.729C1662.39,366.797 1723.56,431.71 1762.49,497.268C1789.03,541.97 1805.17,587.052 1806.78,624.941C1807.95,652.671 1801.45,676.823 1786.59,695.243C1686.62,819.139 1442.24,926.346 1278.29,965.81C1235.58,976.091 1198.27,981.795 1170.27,982.223C1149.19,982.545 1132.86,979.673 1122.41,974.333ZM1135.18,949.345C1142.72,953.197 1154.63,954.397 1169.84,954.165C1196.26,953.761 1231.43,948.226 1271.72,938.528C1430.54,900.299 1667.91,797.64 1764.75,677.622C1775.6,664.184 1779.6,646.358 1778.74,626.128C1777.3,592.078 1762.21,551.768 1738.36,511.596C1701.69,449.843 1644.16,388.614 1580.45,350.871C1539.21,326.441 1495.42,311.822 1453.15,314.206C1309.48,322.308 1203.84,431.888 1137.32,551.157C1096.87,623.661 1070.9,700.005 1060,760.521C1053.09,798.875 1052.03,830.525 1057.98,849.94C1070.06,889.393 1081.34,910.579 1093.93,923.693C1106.33,936.609 1119.78,941.479 1135.18,949.345Z" style="fill:white;"/>
            </g>
            <g transform="matrix(3.1311,0,0,3.1311,-2627.19,-1881.33)">
                <path d="M1201.76,941.668C1201.47,938.809 1192.3,947.743 1190.97,948.186C1182.03,951.164 1170.28,965.068 1159.97,962.492C1144.28,958.568 1122.4,932.761 1126.59,915.999C1132.24,893.403 1174.57,889.918 1190.97,898.117C1206.68,905.971 1214.04,941.033 1195.74,941.033C1194.15,941.033 1193.35,941.709 1193.35,939.841" style="fill:white;"/>
                <path d="M1201.18,946.111C1201.52,946.157 1201.87,946.163 1202.23,946.126C1204.64,945.874 1206.41,943.74 1206.23,941.332C1209.18,938.278 1210.81,933.681 1210.97,928.323C1211.34,915.926 1203.74,899.492 1192.97,894.109C1182.36,888.804 1161.69,887.842 1145.53,893.339C1133.98,897.266 1124.86,904.468 1122.25,914.912C1120.32,922.611 1122.89,932.042 1128.18,940.792C1135.72,953.279 1148.6,964.267 1158.89,966.839C1164.06,968.132 1169.59,966.431 1175,963.308C1181.2,959.73 1187.25,954.15 1192.38,952.437C1192.9,952.265 1194.27,951.464 1195.87,950.16C1197.25,949.045 1199.83,947.115 1201.18,946.111ZM1196.36,936.524C1200.49,936.183 1201.88,932.403 1202.01,928.055C1202.29,918.747 1197.05,906.167 1188.96,902.125C1179.9,897.591 1162.22,897.126 1148.41,901.824C1139.98,904.694 1132.85,909.452 1130.94,917.086C1129.51,922.797 1131.93,929.668 1135.85,936.159C1142.11,946.532 1152.52,956.008 1161.06,958.144C1162.79,958.576 1164.56,958.217 1166.36,957.556C1168.75,956.679 1171.15,955.246 1173.52,953.682C1179.01,950.056 1184.39,945.834 1189.04,944.115L1189.6,943.658L1189.86,943.442C1189.38,942.754 1188.87,941.678 1188.87,939.841C1188.87,937.368 1190.88,935.36 1193.35,935.36C1194.51,935.36 1195.57,935.801 1196.36,936.524Z" style="fill:white;"/>
            </g>
        </g>
    </g>
</svg>
